<svg width="202" height="223" viewBox="0 0 202 223" fill="none" xmlns="http://www.w3.org/2000/svg">
<path d="M21.9997 21.8436C82.5 43.3439 104.164 65.3437 126.481 102.579C144.762 133.079 156.036 170.429 142.765 205.299C141.864 207.665 139.852 220.242 138.381 214.238C137.148 209.209 133.05 198.829 134.729 193.833C136.515 188.518 136.209 204.952 136.669 210.539C136.774 211.814 135.65 216.006 138.48 215.313C150.735 212.309 160.965 204.249 172.683 200.146" stroke="black" stroke-width="6" stroke-linecap="round"/>
<path d="M143.811 50.2467C141.913 53.3936 140.025 56.5689 137.878 59.5522C137.411 60.2017 137.11 60.9309 136.58 61.5175C135.903 62.2679 135.416 63.2489 134.811 64.0695C134.497 64.4962 132.913 66.0471 133.109 66.5477" stroke="black" stroke-width="6" stroke-linecap="round"/>
<path d="M137.247 45.6592C140.654 49.6212 145.851 51.0176 149.653 54.4503" stroke="black" stroke-width="6" stroke-linecap="round"/>
<path d="M156.897 58.5813C154.204 62.9825 151.344 67.0143 149.52 71.907C149.491 71.9847 148.763 73.6022 148.869 73.6985C148.897 73.7239 149.677 72.2389 149.713 72.1706C151.076 69.5924 152.104 65.7402 155.732 66.6899C157.44 67.137 159.872 67.8685 160.361 69.7983C160.782 71.4569 161.488 74.0311 160.149 75.4357C158.451 77.2169 149.813 75.3909 150.627 73.5307" stroke="black" stroke-width="6" stroke-linecap="round"/>
<path d="M171.724 67.9526C170.174 70.9342 168.626 74.0077 167.625 77.2192C167.244 78.4431 166.68 79.5902 166.277 80.8047C166.096 81.3481 166.077 81.9491 165.853 82.4596" stroke="black" stroke-width="6" stroke-linecap="round"/>
<path d="M182.659 72.7394C181.106 76.8641 180.09 81.1571 178.881 85.3889C178.435 86.9507 177.448 88.435 177.212 90.038" stroke="black" stroke-width="6" stroke-linecap="round"/>
<path d="M192.671 81.5114C189.311 81.3586 185.943 80.7567 182.575 80.9017C181.806 80.9348 180.193 80.5845 180.676 81.6707C181.863 84.3426 184.171 86.6188 185.743 89.0704C188.079 92.7144 190.798 96.0774 193.042 99.779" stroke="black" stroke-width="6" stroke-linecap="round"/>
</svg>
