<svg width="252" height="274" viewBox="0 0 252 274" fill="none" xmlns="http://www.w3.org/2000/svg">
<path d="M65.6452 50.5799C42.6906 83.6483 41.3556 132.56 72.7945 147.373C88.8388 154.933 108.293 149.538 122.6 133.368C128.859 126.294 135.061 111.538 131.74 102.681C128.554 94.1821 117 106.391 112.789 110.663C100.845 122.783 89.7916 139.137 88.2235 157.01C86.2555 179.442 100.691 190.283 115.732 197.025C126.312 201.768 138.038 203.61 149.763 204.519C166.212 205.794 181.623 201.968 198.253 196.962" stroke="black" stroke-width="6" stroke-linecap="round"/>
<path d="M169.325 189.877C174.129 192.874 179.491 194.691 184.96 195.339C190.358 195.977 195.905 196.633 201.335 196.633C202.206 196.633 200.603 196.632 200.433 196.659C198.16 197.009 195.762 199.343 193.853 200.606C188.131 204.39 182.01 209.045 178.484 215.502" stroke="black" stroke-width="6" stroke-linecap="round"/>
</svg>
