<svg width="301" height="266" viewBox="0 0 301 266" fill="none" xmlns="http://www.w3.org/2000/svg">
<g clip-path="url(#clip0_301_14)">
<g filter="url(#filter0_f_301_14)">
<path d="M109.676 -15.1535L149.518 96.1392L205.369 -13.9845L176.764 103.16L285.13 30.0558L195.744 121.663L327.588 105.167L201.371 146.691L321.365 191.223L192.138 171.537L268.13 265.165L170.518 189.544L182.147 307.18L142.305 195.887L86.4542 306.011L115.059 188.867L6.69302 261.971L96.0793 170.364L-35.7647 186.86L90.4523 145.336L-29.5423 100.804L99.6855 120.49L23.6927 26.862L121.305 102.482L109.676 -15.1535Z" fill="#FDFFA4"/>
</g>
<path d="M248.521 99.5084C246.111 87.6799 240.439 74.746 234.668 63.8502C226.967 49.312 219.84 34.3498 208.619 21.6611C203.261 15.6022 197.584 9.03472 189.424 6.22949C183.27 4.1139 179.584 5.37058 174.257 8.36525C165.887 13.0717 161.641 22.5606 158.649 30.8702C154.203 43.2224 150.952 55.6457 150.712 68.8821C150.019 107.243 160.693 148.057 167.612 185.957" stroke="black" stroke-width="6" stroke-linecap="round"/>
<path d="M153.936 162.634C154.987 165.05 156.477 167.222 157.773 169.538C159.732 173.037 161.747 176.51 163.728 179.999C165.866 183.762 167.498 187.667 169.432 191.503C169.812 192.256 169.324 190.013 169.285 189.782C168.595 185.723 167.891 181.789 167.871 177.684C167.839 170.968 168.49 164.321 169.774 157.768C170.83 152.38 172.528 147.426 174.62 142.358" stroke="black" stroke-width="6" stroke-linecap="round"/>
</g>
<defs>
<filter id="filter0_f_301_14" x="-60.7646" y="-40.1535" width="413.352" height="372.334" filterUnits="userSpaceOnUse" color-interpolation-filters="sRGB">
<feFlood flood-opacity="0" result="BackgroundImageFix"/>
<feBlend mode="normal" in="SourceGraphic" in2="BackgroundImageFix" result="shape"/>
<feGaussianBlur stdDeviation="12.5" result="effect1_foregroundBlur_301_14"/>
</filter>
<clipPath id="clip0_301_14">
<rect width="301" height="266" fill="white"/>
</clipPath>
</defs>
</svg>
