<svg width="276" height="249" viewBox="0 0 276 249" fill="none" xmlns="http://www.w3.org/2000/svg">
<path d="M262.34 122.276C241.93 105.175 219.958 89.3505 195.269 77.3473C184.674 72.1961 171.722 65.8656 158.756 66.8129C142.97 67.9664 139.054 84.6136 144.422 94.8857C154.573 114.313 178.693 126.74 197.831 137.839C199.857 139.014 240.493 161.973 240.969 155.716C241.565 147.868 222.443 138.243 217.284 134.475C184.428 110.479 140.298 91.9121 98.6907 82.5736C72.9021 76.7854 34.2413 72.8681 18.0203 99.8299C8.64337 115.416 22.1103 130.433 32.1487 140.847C71.1117 181.267 120.78 207.484 171.685 234.026" stroke="black" stroke-width="6" stroke-linecap="round"/>
<path d="M127.844 230.572C133.086 230.572 138.435 230.291 143.654 230.826C150.574 231.534 158.115 232.039 164.787 234.03C168.441 235.119 172.489 236.057 175.732 237.74C177.058 238.428 174.711 235.018 174.417 234.591C166.62 223.288 158.796 212.221 152.965 199.948" stroke="black" stroke-width="6" stroke-linecap="round"/>
</svg>
