<svg width="434" height="79" viewBox="0 0 434 79" fill="none" xmlns="http://www.w3.org/2000/svg">
<path d="M415.082 47.3222C388.183 39.9663 359.957 35.4877 332.082 31.3242C311.176 28.2016 290.27 25.079 269.363 21.9564C252.103 19.3784 234.637 16.2556 217.306 14.4383C174.75 9.97607 132.788 4.28394 90.3463 2.53447C75.9116 1.93947 61.771 2.07293 47.4941 1.90699C36.6372 1.78079 24.8317 2.12764 15.1724 4.33845C8.53687 5.85717 2.62806 9.38857 1.95275 13.9099C1.01834 20.1659 8.16825 24.6981 16.9777 28.5288C44.5299 40.5095 79.1263 43.9313 109.828 49.456C128.136 52.7505 146.804 55.0931 165.218 57.8434C183.512 60.5759 202.109 63.4942 220.48 65.0686C238.3 66.5958 256.264 69.0001 274.093 70.9044C292.112 72.8289 310.202 74.1938 328.209 75.7291C342.248 76.9262 355.874 76.4693 369.799 77.0826C379.395 77.5053 387.547 76.8326 396.397 75.6825C401.637 75.0018 406.26 73.7106 411.283 72.7616C415.418 71.9804 418.217 70.4187 421.914 69.4339C426.906 68.1045 428.119 64.9401 430.674 62.5116C433.119 60.1884 430.588 56.4107 428.736 53.9913C426.799 51.4595 419.899 48.4104 416.455 46.527C406.225 40.9323 392.124 37.0095 380.142 33.3583" stroke="#F2A4FF" stroke-width="3" stroke-linecap="round"/>
</svg>
