<svg width="239" height="42" viewBox="0 0 239 42" fill="none" xmlns="http://www.w3.org/2000/svg">
<g clip-path="url(#clip0_201_14)">
<g clip-path="url(#clip1_201_14)">
<path fill-rule="evenodd" clip-rule="evenodd" d="M25.489 3L25.4891 11.565L25.4949 11.6422C25.5104 11.7425 25.5568 11.8323 25.6342 11.9115C25.6962 11.9749 25.7647 12.0179 25.8398 12.0408L25.8974 12.0541L25.9729 12.06H28.6241L28.7066 12.0545C28.8129 12.0397 28.9047 11.9953 28.9821 11.9214C29.0466 11.8598 29.0896 11.7865 29.1111 11.7014L29.1232 11.6354L29.1273 11.565L29.128 3.0091L29.402 3.01524L29.9241 3.03233L30.4134 3.05578L30.8719 3.08556C31.2417 3.113 31.5813 3.147 31.8957 3.18745L31.8926 3.23128L31.8801 3.55615L31.8699 4.08764L31.8643 4.96555L31.8647 5.5359L31.8697 6.23175L31.877 6.6467L31.8835 6.8724C31.948 8.6412 32.5092 9.981 33.5671 10.8918C34.625 11.8026 36.07 12.258 37.902 12.258C38.694 12.258 39.413 12.1729 40.0592 12.0027C40.0785 12.2079 40.0957 12.4229 40.1106 12.6488L40.1376 13.1153L40.1586 13.6125C40.1616 13.6981 40.1644 13.7849 40.1669 13.8732L40.179 14.42C40.182 14.608 40.184 14.8019 40.185 15.0021L40.1862 15.6529C39.5033 15.4458 38.7419 15.3423 37.902 15.3423C36.0958 15.3423 34.654 15.8142 33.5768 16.758C32.5444 17.6624 31.983 18.9336 31.8926 20.5715L31.8801 20.8964L31.8699 21.4279L31.8643 22.3058L31.8647 22.8762L31.8697 23.572L31.877 23.987L31.8835 24.2127C31.948 25.9815 32.5092 27.3213 33.5671 28.2321C34.625 29.1429 36.07 29.5983 37.902 29.5983C38.7157 29.5983 39.4525 29.5084 40.1122 29.3287C39.9784 31.3735 39.6647 32.5353 39.1857 33.5756L39.0625 33.8336L38.9325 34.0891C38.1148 35.6536 36.9148 36.8814 35.3857 37.718C34.736 38.0736 34.0885 38.3585 33.2377 38.5686L33.238 33.243L33.2342 33.1726C33.2217 33.0589 33.1778 32.9636 33.1025 32.8866C33.0423 32.825 32.9706 32.7839 32.8875 32.7634L32.823 32.7519L32.7542 32.748H27.5485L27.2952 32.7515C26.293 32.7791 25.4227 32.9727 24.6844 33.3321C23.8845 33.7215 23.2781 34.266 22.8653 34.9656C22.4525 35.6652 22.246 36.4638 22.246 37.3614C22.246 37.9556 22.3327 38.5021 22.5062 39.0008L17.0285 39.0003C16.8418 39.0003 16.6604 38.9994 16.4841 38.9976L15.9702 38.9896L15.4853 38.9764C15.4068 38.9738 15.3295 38.9709 15.2533 38.9678L14.8092 38.9468L14.3906 38.9205C14.2551 38.9109 14.1237 38.9004 13.996 38.8891L13.6239 38.8525C13.2025 38.8069 12.8242 38.7508 12.4789 38.6845L12.1908 38.6252L11.9173 38.5609C11.8285 38.5386 11.7419 38.5155 11.6572 38.4916L11.4089 38.4175C11.2875 38.3791 11.17 38.339 11.0556 38.297L10.8308 38.2107L10.8369 38.0148C10.8885 36.3516 11.6433 35.52 13.1011 35.52C13.7075 35.52 14.1945 35.6487 14.5622 35.9061L14.7533 36.0413C15.0491 36.2552 15.3773 36.525 15.6233 36.9317L15.7021 37.0725C15.9201 37.4944 16.1294 37.5493 16.2969 37.5473L16.3711 37.5434L16.4387 37.5383C16.4494 37.5377 16.4597 37.5373 16.4698 37.5373C16.4916 37.5373 16.5282 37.5267 16.5796 37.5056L16.6675 37.4659L16.8409 37.3766L17.0638 37.2517L17.3364 37.091L17.7771 36.8212L18.1655 36.5772C18.4397 36.4035 18.6483 36.0916 18.6018 35.5992C18.5553 35.1068 17.4728 34.0501 16.4698 33.4505L16.2363 33.3128L16.0142 33.1871C15.2871 32.7877 14.6658 32.5834 13.327 32.5177L13.1207 32.5089L12.8953 32.5039L12.6736 32.5054C11.0616 32.5402 9.75161 33.0929 8.77594 33.9459C8.18499 34.4626 7.74815 35.1003 7.46542 35.8591C6.9984 35.3302 6.59299 34.7387 6.25347 34.0891L6.12346 33.8336L6.00029 33.5756C5.52133 32.5353 5.20762 31.3736 5.07394 29.3288C5.73431 29.5086 6.47111 29.5983 7.28415 29.5983C9.11614 29.5983 10.5579 29.1429 11.6093 28.2321C12.6608 27.3213 13.2188 25.9815 13.2833 24.2127L13.308 23.408L13.3185 22.9126L13.322 22.5099L13.3191 22.154L13.3015 21.371L13.2833 20.7873C13.2317 19.0449 12.6672 17.7018 11.59 16.758C10.5127 15.8142 9.07743 15.3423 7.28415 15.3423C6.44361 15.3423 5.68201 15.4445 4.99933 15.6488L5.00261 14.7752L5.00968 14.2719L5.02143 13.7957L5.03783 13.3453L5.05887 12.9195L5.08452 12.517C5.08918 12.4517 5.09403 12.3874 5.09907 12.324L5.13158 11.9541L5.16865 11.6043L5.21023 11.2733C5.21754 11.2197 5.22503 11.1667 5.23271 11.1145L5.28103 10.8095C5.29789 10.7105 5.31548 10.6141 5.33382 10.5202L5.39104 10.2453L5.45267 9.98352L5.51868 9.73368C5.53005 9.69297 5.5416 9.65269 5.55333 9.61283L5.62588 9.37846C5.63833 9.34017 5.65097 9.30223 5.66378 9.26463L5.74281 9.04289L5.82613 8.82797C5.84037 8.79265 5.85479 8.75756 5.86939 8.72268L5.95909 8.51563L6.05303 8.31225L6.15116 8.11126L6.25347 7.9114C7.07122 6.34696 8.27122 5.11917 9.80027 4.2825L10.0936 4.12708L10.2911 4.02882L10.4915 3.93487C10.5252 3.91957 10.5591 3.90446 10.5932 3.88952L10.8004 3.80209C10.8354 3.78788 10.8706 3.77386 10.9062 3.76001L11.1229 3.67915L11.3475 3.60271C11.4239 3.57796 11.5017 3.55396 11.5813 3.5307L11.8255 3.46315L12.0813 3.4001L12.35 3.34155C12.4419 3.32279 12.536 3.30479 12.6328 3.28755L12.9309 3.23811C12.982 3.23025 13.0337 3.22258 13.0861 3.21511L13.4096 3.17256L13.7515 3.13464L14.1131 3.10137L14.4956 3.07278L14.9002 3.04889L15.3282 3.02973L15.7809 3.01532L16.2595 3.00569L16.7651 3.00086L18.5012 3C18.4877 4.64144 18.3615 5.94384 18.1232 6.91249L18.0773 7.0902C17.7934 8.133 17.3096 8.7138 16.6259 8.8326C16.3598 8.88705 16.2034 9.01337 16.1569 9.21157L16.1454 9.2803L16.1421 9.3474V11.5452L16.1464 11.6101C16.1607 11.7164 16.2109 11.8136 16.2969 11.9016C16.4001 12.0072 16.5162 12.06 16.6452 12.06C18.116 12.0336 19.2352 11.7267 20.0028 11.1393C20.7704 10.5519 21.2961 9.6378 21.58 8.397C21.8361 7.27748 21.9766 5.74963 22.0017 3.81344L22.0048 3.48696L22.0057 3H25.489ZM29.6192 35.5992L29.619 38.9791L29.0629 38.9926L28.4692 38.9994L27.4693 39.0004C27.0173 38.9746 26.6696 38.8342 26.4261 38.5791C26.1551 38.2953 26.0197 37.8894 26.0197 37.3614C26.0197 36.8334 26.1616 36.4077 26.4454 36.0843C26.6796 35.8175 26.9884 35.6607 27.3718 35.6141L27.5024 35.6026L27.6259 35.5992H29.6192ZM22.5313 15.3423C20.7122 15.3423 19.2705 15.8076 18.2061 16.7382C17.1417 17.6688 16.5773 18.9921 16.5128 20.7081L16.5068 20.915L16.4967 21.601L16.4939 22.1283V22.8458L16.5019 23.7935L16.5097 24.1372L16.5128 24.2325C16.5773 25.9881 17.1353 27.3213 18.1868 28.2321C19.2382 29.1429 20.6864 29.5983 22.5313 29.5983C23.6795 29.5983 24.7084 29.4069 25.6179 29.0241C26.5275 28.6413 27.2467 28.0869 27.7757 27.3609C28.3046 26.6349 28.582 25.7769 28.6078 24.7869C28.6078 24.6681 28.5659 24.5691 28.482 24.4899C28.4317 24.4423 28.3756 24.4091 28.3137 24.3901L28.2498 24.3758L28.1821 24.3711H25.4341L25.3475 24.3741C25.2096 24.3842 25.103 24.4195 25.0277 24.48C24.9524 24.5405 24.8906 24.6445 24.8422 24.7921L24.8148 24.8859C24.6471 25.5195 24.373 25.9683 23.9924 26.2323C23.6118 26.4963 23.1247 26.6283 22.5313 26.6283C21.119 26.6283 20.3666 25.8478 20.274 24.287L20.2634 24.012L20.2546 23.5822L20.2485 22.8564L20.2492 21.8884L20.258 21.1414L20.2671 20.8071C20.3187 19.1439 21.0734 18.3123 22.5313 18.3123C23.1376 18.3123 23.6247 18.441 23.9924 18.6984C24.3601 18.9558 24.6342 19.4079 24.8148 20.0547C24.8793 20.2527 24.9535 20.388 25.0374 20.4606C25.0933 20.509 25.1707 20.5412 25.2696 20.5574L25.3478 20.5664L25.4341 20.5695H28.1821L28.2498 20.5647C28.3375 20.552 28.4149 20.514 28.482 20.4507C28.5659 20.3715 28.6078 20.2725 28.6078 20.1537C28.582 19.1637 28.3046 18.3057 27.7757 17.5797C27.2467 16.8537 26.5275 16.2993 25.6179 15.9165C24.7084 15.5337 23.6795 15.3423 22.5313 15.3423ZM37.902 18.3123C38.5728 18.3123 39.1082 18.5202 39.5082 18.936C39.9081 19.3518 40.121 19.9887 40.1468 20.8467L40.1758 21.802L40.1844 22.2684V22.6336L40.1723 23.2503L40.1468 24.0939C40.121 24.9519 39.9081 25.5888 39.5082 26.0046C39.1082 26.4204 38.5728 26.6283 37.902 26.6283C37.2182 26.6283 36.6763 26.4204 36.2764 26.0046C35.9031 25.6165 35.6928 25.0358 35.6454 24.2625L35.6341 23.9741L35.6254 23.5553L35.6202 23.0474V21.8654L35.6254 21.3694L35.6341 20.9625L35.6378 20.8467C35.6636 19.9887 35.8764 19.3518 36.2764 18.936C36.6763 18.5202 37.2182 18.3123 37.902 18.3123ZM7.28415 18.3123C7.95502 18.3123 8.49042 18.5202 8.89037 18.936C9.29031 19.3518 9.50318 19.9887 9.52898 20.8467L9.55801 21.802L9.56661 22.2684V22.6336L9.55452 23.2503L9.52898 24.0939C9.50318 24.9519 9.29031 25.5888 8.89037 26.0046C8.49042 26.4204 7.95502 26.6283 7.28415 26.6283C6.60037 26.6283 6.05852 26.4204 5.65857 26.0046C5.2853 25.6165 5.07497 25.0358 5.02761 24.2625L5.01628 23.9741L5.00757 23.5553L5.00138 22.8583V22.0505L5.00757 21.3694L5.01628 20.9625L5.01996 20.8467C5.04576 19.9887 5.25863 19.3518 5.65857 18.936C6.05852 18.5202 6.60037 18.3123 7.28415 18.3123ZM10.9448 8.34C9.9259 8.34 9.09097 9.17253 9.10513 10.2005C9.09097 11.243 9.9259 12.0828 10.9448 12.0828C11.9141 12.0828 12.7703 11.243 12.7845 10.2005C12.7703 9.17253 11.9141 8.34 10.9448 8.34ZM38.9325 7.9114C39.086 8.20492 39.2259 8.498 39.3521 8.80873C38.9729 9.12862 38.4893 9.288 37.902 9.288C37.2182 9.288 36.6763 9.0801 36.2764 8.6643C35.9031 8.27622 35.6928 7.69554 35.6454 6.92225L35.6341 6.63381L35.6254 6.21504L35.6202 5.70717L35.6199 4.57151C35.6202 4.51839 35.6205 4.46653 35.6209 4.41592C37.0385 5.2477 38.1573 6.42826 38.9325 7.9114Z" fill="black"/>
<path d="M53.3833 19.4135C53.5268 19.4135 53.6474 19.3668 53.7452 19.2734C53.8431 19.18 53.892 19.0598 53.892 18.913V11.6259L55.9853 15.5898C56.1809 15.8968 56.4092 16.0502 56.67 16.0502H57.7265C58.0134 16.0502 58.2417 15.8968 58.4112 15.5898L60.5241 11.6259V18.913C60.5241 19.0465 60.5731 19.1633 60.6709 19.2634C60.7687 19.3635 60.8828 19.4135 61.0132 19.4135H63.4979C63.6413 19.4135 63.762 19.3668 63.8598 19.2734C63.9576 19.18 64.0065 19.0598 64.0065 18.913V5.92041C64.0065 5.7736 63.9576 5.65015 63.8598 5.55005C63.762 5.44995 63.6413 5.3999 63.4979 5.3999H61.2871C60.9611 5.3999 60.7263 5.54671 60.5828 5.84033L57.1983 12.0063L53.8333 5.84033C53.6898 5.54671 53.455 5.3999 53.129 5.3999H50.9182C50.7748 5.3999 50.6541 5.44995 50.5563 5.55005C50.4585 5.65015 50.4096 5.7736 50.4096 5.92041V18.913C50.4096 19.0598 50.4585 19.18 50.5563 19.2734C50.6541 19.3668 50.7748 19.4135 50.9182 19.4135H53.3833ZM69.5093 19.4135C69.6527 19.4135 69.7734 19.3668 69.8712 19.2734C69.969 19.18 70.0179 19.0598 70.0179 18.913V15.4897H73.3438V18.913C73.3438 19.0598 73.3927 19.18 73.4905 19.2734C73.5883 19.3668 73.709 19.4135 73.8525 19.4135H76.298C76.4414 19.4135 76.5588 19.3635 76.6501 19.2634C76.7414 19.1633 76.787 19.0465 76.787 18.913V9.50389C76.787 9.35708 76.7414 9.23696 76.6501 9.14354C76.5588 9.05011 76.4414 9.0034 76.298 9.0034H73.8525C73.709 9.0034 73.5883 9.05011 73.4905 9.14354C73.3927 9.23696 73.3438 9.35708 73.3438 9.50389V12.7671H70.0179V9.50389C70.0179 9.35708 69.969 9.23696 69.8712 9.14354C69.7734 9.05011 69.6527 9.0034 69.5093 9.0034H67.0638C66.9333 9.0034 66.8192 9.05011 66.7214 9.14354C66.6236 9.23696 66.5747 9.35708 66.5747 9.50389V18.913C66.5747 19.0465 66.6236 19.1633 66.7214 19.2634C66.8192 19.3635 66.9333 19.4135 67.0638 19.4135H69.5093ZM83.8835 19.6137C85.5269 19.6137 86.7888 19.2233 87.6691 18.4426C88.5495 17.6618 89.0288 16.5507 89.1071 15.1093C89.1332 14.7623 89.1462 14.462 89.1462 14.2085C89.1462 13.9549 89.1332 13.6546 89.1071 13.3076C89.0288 11.8929 88.5365 10.7885 87.63 9.99436C86.7235 9.20026 85.4747 8.80321 83.8835 8.80321C82.2923 8.80321 81.0435 9.20026 80.137 9.99436C79.2305 10.7885 78.7382 11.8929 78.6599 13.3076C78.6469 13.4811 78.6404 13.7814 78.6404 14.2085L78.6406 14.3461C78.6419 14.7007 78.6483 14.9551 78.6599 15.1093C78.7382 16.5507 79.2175 17.6618 80.0979 18.4426C80.9783 19.2233 82.2401 19.6137 83.8835 19.6137ZM83.8835 17.0913C83.3488 17.0913 82.951 16.9211 82.6901 16.5808C82.4292 16.2404 82.2793 15.7166 82.2401 15.0092L82.2206 14.2085L82.2401 13.4077C82.2793 12.7137 82.4292 12.1932 82.6901 11.8462C82.951 11.4992 83.3488 11.3257 83.8835 11.3257C84.4183 11.3257 84.816 11.4992 85.0769 11.8462C85.3378 12.1932 85.4877 12.7137 85.5269 13.4077C85.5399 13.5411 85.5464 13.8081 85.5464 14.2085C85.5464 14.6088 85.5399 14.8758 85.5269 15.0092C85.4877 15.7166 85.3378 16.2404 85.0769 16.5808C84.816 16.9211 84.4183 17.0913 83.8835 17.0913ZM93.9394 19.4135C94.0828 19.4135 94.2035 19.3668 94.3013 19.2734C94.3991 19.18 94.448 19.0598 94.448 18.913V11.726H98.1065C98.25 11.726 98.3674 11.676 98.4586 11.5759C98.5499 11.4758 98.5956 11.359 98.5956 11.2256V9.50389C98.5956 9.35708 98.5499 9.23696 98.4586 9.14354C98.3674 9.05011 98.25 9.0034 98.1065 9.0034H91.4939C91.3635 9.0034 91.2493 9.05011 91.1515 9.14354C91.0537 9.23696 91.0048 9.35708 91.0048 9.50389V18.913C91.0048 19.0465 91.0537 19.1633 91.1515 19.2634C91.2493 19.3635 91.3635 19.4135 91.4939 19.4135H93.9394ZM104.658 19.6137C106.301 19.6137 107.563 19.2233 108.443 18.4426C109.324 17.6618 109.803 16.5507 109.881 15.1093C109.907 14.7623 109.92 14.462 109.92 14.2085C109.92 13.9549 109.907 13.6546 109.881 13.3076C109.803 11.8929 109.311 10.7885 108.404 9.99436C107.498 9.20026 106.249 8.80321 104.658 8.80321C103.066 8.80321 101.818 9.20026 100.911 9.99436C100.005 10.7885 99.5123 11.8929 99.434 13.3076C99.421 13.4811 99.4145 13.7814 99.4145 14.2085L99.4147 14.3461C99.416 14.7007 99.4225 14.9551 99.434 15.1093C99.5123 16.5507 99.9916 17.6618 100.872 18.4426C101.752 19.2233 103.014 19.6137 104.658 19.6137ZM104.66 17.0913C104.126 17.0913 103.728 16.9211 103.467 16.5808C103.206 16.2404 103.056 15.7166 103.017 15.0092L102.998 14.2085L103.017 13.4077C103.056 12.7137 103.206 12.1932 103.467 11.8462C103.728 11.4992 104.126 11.3257 104.66 11.3257C105.195 11.3257 105.593 11.4992 105.854 11.8462C106.115 12.1932 106.265 12.7137 106.304 13.4077C106.317 13.5411 106.323 13.8081 106.323 14.2085C106.323 14.6088 106.317 14.8758 106.304 15.0092C106.265 15.7166 106.115 16.2404 105.854 16.5808C105.593 16.9211 105.195 17.0913 104.66 17.0913ZM59.7025 36.3997C59.8459 36.3997 59.9633 36.3497 60.0546 36.2496C60.1459 36.1495 60.1916 36.0327 60.1916 35.8992V26.4901C60.1916 26.3433 60.1459 26.2232 60.0546 26.1297C59.9633 26.0363 59.8459 25.9896 59.7025 25.9896H51.8769C51.7465 25.9896 51.6323 26.0363 51.5345 26.1297C51.4367 26.2232 51.3878 26.3433 51.3878 26.4901V29.3529C51.3878 30.8076 51.2965 31.8553 51.1139 32.4959C50.9313 33.1365 50.5791 33.4835 50.0574 33.5369C49.914 33.5636 49.7966 33.6203 49.7053 33.7071C49.614 33.7938 49.5683 33.9039 49.5683 34.0374V35.8792C49.5683 36.026 49.6172 36.1495 49.7151 36.2496C49.8129 36.3497 49.9335 36.3997 50.077 36.3997C51.316 36.3997 52.2584 36.1962 52.904 35.7891C53.5496 35.3821 54.0028 34.7081 54.2637 33.7671C54.5245 32.8262 54.655 31.4816 54.655 29.7332V28.7122H56.7483V35.8992C56.7483 36.046 56.7972 36.1661 56.895 36.2596C56.9929 36.353 57.1135 36.3997 57.257 36.3997H59.7025ZM67.4107 36.5999C69.054 36.5999 70.3159 36.2095 71.1963 35.4288C72.0767 34.648 72.556 33.5369 72.6342 32.0955C72.6603 31.7485 72.6734 31.4482 72.6734 31.1947C72.6734 30.9411 72.6603 30.6408 72.6342 30.2938C72.556 28.8791 72.0636 27.7747 71.1572 26.9806C70.2507 26.1865 69.0019 25.7894 67.4107 25.7894C65.8195 25.7894 64.5706 26.1865 63.6642 26.9806C62.7577 27.7747 62.2653 28.8791 62.1871 30.2938C62.174 30.4673 62.1675 30.7676 62.1675 31.1947L62.1678 31.3323C62.169 31.6869 62.1755 31.9413 62.1871 32.0955C62.2653 33.5369 62.7447 34.648 63.625 35.4288C64.5054 36.2095 65.7673 36.5999 67.4107 36.5999ZM67.4107 34.0775C66.8759 34.0775 66.4781 33.9073 66.2173 33.567C65.9564 33.2266 65.8064 32.7028 65.7673 31.9954L65.7477 31.1947L65.7673 30.3939C65.8064 29.6999 65.9564 29.1794 66.2173 28.8324C66.4781 28.4854 66.8759 28.3119 67.4107 28.3119C67.9454 28.3119 68.3432 28.4854 68.6041 28.8324C68.8649 29.1794 69.0149 29.6999 69.054 30.3939C69.0671 30.5273 69.0736 30.7943 69.0736 31.1947C69.0736 31.595 69.0671 31.862 69.054 31.9954C69.0149 32.7028 68.8649 33.2266 68.6041 33.567C68.3432 33.9073 67.9454 34.0775 67.4107 34.0775ZM79.2664 36.5999C80.4402 36.5999 81.4184 36.3797 82.201 35.9393C82.9836 35.4988 83.5542 34.9883 83.9128 34.4078C84.2715 33.8272 84.4509 33.3301 84.4509 32.9163C84.4509 32.7829 84.3987 32.6694 84.2944 32.576C84.19 32.4826 84.0726 32.4359 83.9422 32.4359H81.3206C81.1772 32.4359 81.0663 32.4692 80.988 32.536C80.9098 32.6027 80.838 32.7095 80.7728 32.8563C80.6294 33.2433 80.45 33.5202 80.2348 33.6871C80.0196 33.8539 79.7229 33.9373 79.3447 33.9373C78.836 33.9373 78.4512 33.7738 78.1904 33.4468C77.9295 33.1199 77.7926 32.6094 77.7795 31.9154L77.76 31.2547L77.7795 30.494C77.8187 29.1326 78.3404 28.452 79.3447 28.452C79.6968 28.452 79.987 28.5387 80.2153 28.7122C80.4435 28.8857 80.6294 29.1593 80.7728 29.533C80.838 29.6798 80.9098 29.7866 80.988 29.8533C81.0663 29.9201 81.1772 29.9534 81.3206 29.9534H83.9422C84.0857 29.9534 84.2096 29.9034 84.3139 29.8033C84.4183 29.7032 84.4639 29.5797 84.4509 29.4329C84.4248 28.9658 84.2226 28.4487 83.8444 27.8814C83.4661 27.3142 82.8923 26.8237 82.1227 26.41C81.3532 25.9963 80.4011 25.7894 79.2664 25.7894C77.7796 25.7894 76.5731 26.1965 75.6471 27.0106C74.7211 27.8247 74.232 28.9525 74.1798 30.3939L74.1602 31.2147L74.1798 32.0154C74.245 33.4568 74.7374 34.5813 75.6569 35.3887C76.5764 36.1962 77.7796 36.5999 79.2664 36.5999ZM91.0243 36.5999C92.6677 36.5999 93.9296 36.2095 94.81 35.4288C95.6904 34.648 96.1697 33.5369 96.2479 32.0955C96.274 31.7485 96.2871 31.4482 96.2871 31.1947C96.2871 30.9411 96.274 30.6408 96.2479 30.2938C96.1697 28.8791 95.6773 27.7747 94.7708 26.9806C93.8644 26.1865 92.6155 25.7894 91.0243 25.7894C89.4331 25.7894 88.1843 26.1865 87.2778 26.9806C86.3714 27.7747 85.879 28.8791 85.8008 30.2938C85.7877 30.4673 85.7812 30.7676 85.7812 31.1947L85.7815 31.3323C85.7827 31.6869 85.7892 31.9413 85.8008 32.0955C85.879 33.5369 86.3583 34.648 87.2387 35.4288C88.1191 36.2095 89.381 36.5999 91.0243 36.5999ZM91.0243 34.0775C90.4896 34.0775 90.0918 33.9073 89.8309 33.567C89.5701 33.2266 89.4201 32.7028 89.381 31.9954L89.3614 31.1947L89.381 30.3939C89.4201 29.6999 89.5701 29.1794 89.8309 28.8324C90.0918 28.4854 90.4896 28.3119 91.0243 28.3119C91.5591 28.3119 91.9569 28.4854 92.2178 28.8324C92.4786 29.1794 92.6286 29.6999 92.6677 30.3939C92.6808 30.5273 92.6873 30.7943 92.6873 31.1947C92.6873 31.595 92.6808 31.862 92.6677 31.9954C92.6286 32.7028 92.4786 33.2266 92.2178 33.567C91.9569 33.9073 91.5591 34.0775 91.0243 34.0775ZM102.88 36.5999C104.054 36.5999 105.032 36.3797 105.815 35.9393C106.597 35.4988 107.168 34.9883 107.527 34.4078C107.885 33.8272 108.065 33.3301 108.065 32.9163C108.065 32.7829 108.012 32.6694 107.908 32.576C107.804 32.4826 107.686 32.4359 107.556 32.4359H104.934C104.791 32.4359 104.68 32.4692 104.602 32.536C104.523 32.6027 104.452 32.7095 104.387 32.8563C104.243 33.2433 104.064 33.5202 103.849 33.6871C103.633 33.8539 103.337 33.9373 102.958 33.9373C102.45 33.9373 102.065 33.7738 101.804 33.4468C101.543 33.1199 101.406 32.6094 101.393 31.9154L101.374 31.2547L101.393 30.494C101.432 29.1326 101.954 28.452 102.958 28.452C103.311 28.452 103.601 28.5387 103.829 28.7122C104.057 28.8857 104.243 29.1593 104.387 29.533C104.452 29.6798 104.523 29.7866 104.602 29.8533C104.68 29.9201 104.791 29.9534 104.934 29.9534H107.556C107.699 29.9534 107.823 29.9034 107.928 29.8033C108.032 29.7032 108.078 29.5797 108.065 29.4329C108.038 28.9658 107.836 28.4487 107.458 27.8814C107.08 27.3142 106.506 26.8237 105.736 26.41C104.967 25.9963 104.015 25.7894 102.88 25.7894C101.393 25.7894 100.187 26.1965 99.2608 27.0106C98.3347 27.8247 97.8456 28.9525 97.7935 30.3939L97.7739 31.2147L97.7935 32.0154C97.8587 33.4568 98.351 34.5813 99.2705 35.3887C100.19 36.1962 101.393 36.5999 102.88 36.5999ZM112.466 36.3997C112.675 36.3997 112.825 36.2996 112.916 36.0994L114.501 33.0965H115.831V35.8992C115.831 36.046 115.88 36.1661 115.978 36.2596C116.076 36.353 116.197 36.3997 116.34 36.3997H118.864C119.007 36.3997 119.125 36.3497 119.216 36.2496C119.307 36.1495 119.353 36.0327 119.353 35.8992V26.4901C119.353 26.3433 119.307 26.2232 119.216 26.1297C119.125 26.0363 119.007 25.9896 118.864 25.9896H114.11C112.793 25.9896 111.765 26.2932 111.028 26.9005C110.292 27.5077 109.923 28.3786 109.923 29.513C109.923 30.1803 110.067 30.7609 110.354 31.2547C110.64 31.7485 111.058 32.1422 111.606 32.4359L109.669 35.719C109.604 35.7991 109.571 35.8925 109.571 35.9993C109.571 36.1061 109.61 36.1995 109.688 36.2796C109.767 36.3597 109.871 36.3997 110.001 36.3997H112.466ZM115.91 30.7142H114.247C113.829 30.7142 113.513 30.6074 113.298 30.3939C113.083 30.1803 112.975 29.8867 112.975 29.513C112.975 29.1126 113.083 28.8223 113.298 28.6422C113.513 28.462 113.849 28.3719 114.305 28.3719H115.91V30.7142Z" fill="black"/>
</g>
<path d="M132.364 13L148 29" stroke="black" stroke-width="2" stroke-linecap="round"/>
<path d="M147.636 13L132 29" stroke="black" stroke-width="2" stroke-linecap="round"/>
<path d="M170.156 32.9857C170.241 32.1386 170.454 31.3339 170.879 30.5292C171.431 29.428 172.281 28.4962 173.216 27.8186C173.301 27.7339 173.471 27.7339 173.598 27.7762C173.768 27.861 173.853 28.0727 173.768 28.2421C173.768 28.2845 173.726 28.3268 173.683 28.3268C173.173 28.7504 172.748 29.3009 172.408 29.9362C172.281 30.1904 172.196 30.4445 172.111 30.6986L172.069 30.7833L172.154 30.741C173.216 30.4021 174.108 29.6398 174.661 28.581C175.043 27.7762 175.213 26.9715 175.086 26.1245C175.086 26.0398 175.086 25.9974 175.128 25.9127C175.213 25.7433 175.425 25.701 175.595 25.7433C175.638 25.7857 175.723 25.828 175.723 25.8704C176.36 27.268 176.36 28.9198 175.638 30.4021C174.916 31.7998 173.683 32.7739 172.239 33.1127C172.154 33.1127 172.069 33.1551 171.984 33.1974C171.899 33.2398 171.814 33.3245 171.729 33.4515C171.729 33.4515 171.729 33.4939 171.686 33.4939C171.644 33.5786 171.644 33.6633 171.644 33.7057C171.644 33.7057 171.644 33.9174 171.729 34.0868C171.729 34.1292 171.729 34.1292 171.729 34.1715C171.729 34.2986 171.644 34.3833 171.516 34.3833C171.474 34.3833 171.431 34.3833 171.389 34.341L170.284 33.5362C170.199 33.4515 170.156 33.3668 170.114 33.2398C170.156 33.2398 170.156 33.028 170.156 32.9857Z" fill="black"/>
<path d="M170.114 36.6284C169.986 35.2307 169.604 33.8331 168.924 32.5202C167.989 30.699 166.587 29.1319 165.057 28.0307C164.887 27.9037 164.632 27.8613 164.462 27.9884C164.165 28.1154 164.037 28.4966 164.207 28.7931C164.25 28.8354 164.292 28.9202 164.335 28.9625C165.185 29.6825 165.907 30.5719 166.46 31.6307C166.672 32.0543 166.799 32.4778 166.927 32.9013L166.969 33.0707L166.799 33.0284C165.057 32.4354 163.528 31.2072 162.635 29.386C161.955 28.0307 161.7 26.6754 161.913 25.2778C161.913 25.1507 161.913 25.066 161.87 24.939C161.615 24.6002 161.275 24.5154 161.02 24.6425C160.935 24.6849 160.851 24.7696 160.808 24.8543C159.788 27.1413 159.703 29.9366 160.935 32.3931C162.125 34.7649 164.207 36.3319 166.587 36.9672C166.757 37.0096 166.884 37.0519 167.012 37.0943C167.182 37.179 167.309 37.306 167.437 37.4754C167.437 37.5178 167.479 37.5178 167.479 37.5602C167.522 37.6872 167.564 37.8143 167.564 37.9413C167.564 37.9413 167.564 38.3225 167.437 38.5343C167.437 38.5766 167.394 38.619 167.394 38.6613C167.394 38.8731 167.564 39.0002 167.734 39.0002C167.819 39.0002 167.862 38.9578 167.947 38.9155L169.816 37.5602C169.986 37.4331 170.071 37.2637 170.071 37.0519C170.114 37.0943 170.114 36.7131 170.114 36.6284Z" fill="black"/>
<path d="M166.035 22.5245C165.95 21.6774 165.737 20.8727 165.312 20.068C164.76 18.9668 163.91 18.0351 162.975 17.3574C162.89 17.2727 162.72 17.2727 162.593 17.3151C162.423 17.3998 162.338 17.6115 162.423 17.781C162.423 17.8233 162.465 17.8657 162.508 17.8657C163.018 18.2892 163.443 18.8398 163.782 19.4751C163.91 19.7292 163.995 19.9833 164.08 20.2374L164.122 20.3645H164.037C162.975 20.0257 162.083 19.2633 161.53 18.2045C161.148 17.3998 160.978 16.5951 161.105 15.748C161.105 15.6633 161.105 15.621 161.063 15.5362C160.978 15.3668 160.766 15.3245 160.596 15.3668C160.553 15.4092 160.468 15.4515 160.468 15.4939C159.831 16.8915 159.831 18.5433 160.553 20.0257C161.275 21.4233 162.508 22.3974 163.952 22.7362C164.037 22.7362 164.122 22.7786 164.207 22.821C164.292 22.8633 164.377 22.948 164.462 23.0751C164.462 23.0751 164.462 23.1174 164.505 23.1174C164.547 23.2021 164.547 23.2868 164.547 23.3292C164.547 23.3292 164.547 23.541 164.462 23.7104C164.462 23.7104 164.462 23.7527 164.462 23.7951C164.462 23.9221 164.547 24.0068 164.675 24.0068C164.717 24.0068 164.76 24.0068 164.802 23.9645L165.907 23.1598C165.992 23.0751 166.035 22.9904 166.077 22.8633C166.077 22.821 166.035 22.6092 166.035 22.5245Z" fill="black"/>
<path d="M166.077 26.1672C166.205 24.7696 166.587 23.3719 167.267 22.059C168.159 20.2378 169.604 18.6707 171.134 17.5696C171.304 17.4425 171.559 17.4002 171.729 17.5272C172.026 17.6543 172.154 18.0354 171.984 18.3319C171.941 18.3743 171.899 18.459 171.856 18.5013C171.006 19.2213 170.284 20.1107 169.731 21.1696C169.519 21.5931 169.392 22.0166 169.264 22.4402L169.222 22.6096L169.392 22.5672C171.134 21.9743 172.663 20.746 173.556 18.9249C174.236 17.5696 174.491 16.2143 174.278 14.8166C174.278 14.6896 174.278 14.6049 174.321 14.4778C174.448 14.1813 174.788 14.0966 175.086 14.2237C175.171 14.266 175.256 14.3507 175.298 14.4354C176.318 16.7225 176.403 19.5178 175.171 21.9743C173.981 24.346 171.899 25.9131 169.519 26.5484C169.349 26.5907 169.222 26.6331 169.094 26.6754C168.924 26.7602 168.797 26.8872 168.669 27.0566C168.669 27.099 168.627 27.099 168.627 27.1413C168.584 27.2684 168.542 27.3954 168.542 27.5225C168.542 27.5225 168.542 27.9037 168.669 28.1154C168.669 28.1578 168.669 28.2001 168.669 28.2425C168.669 28.4543 168.499 28.5813 168.329 28.5813C168.244 28.5813 168.202 28.539 168.117 28.4966L166.247 27.1413C166.077 27.0143 165.992 26.8449 165.992 26.6331C166.077 26.6754 166.077 26.2519 166.077 26.1672Z" fill="black"/>
<path d="M164.292 12.3176C164.292 12.6141 163.995 12.8682 163.655 12.8682C163.315 12.8682 163.018 12.6141 163.018 12.3176V3.55059C163.06 3.25412 163.315 3 163.655 3C163.995 3 164.292 3.25412 164.292 3.55059V12.3176Z" fill="black"/>
<path d="M172.493 12.3176C172.493 12.6141 172.196 12.8682 171.856 12.8682C171.516 12.8682 171.219 12.6141 171.219 12.3176V3.55059C171.219 3.25412 171.516 3 171.856 3C172.196 3 172.493 3.25412 172.493 3.55059V12.3176Z" fill="black"/>
<path d="M168.414 15.1553C168.414 15.4518 168.117 15.7059 167.777 15.7059C167.437 15.7059 167.139 15.4518 167.139 15.1553V3.55059C167.139 3.25412 167.437 3 167.777 3C168.117 3 168.414 3.25412 168.414 3.55059V15.1553Z" fill="black"/>
<path d="M183.117 11.6401C182.819 11.6401 182.607 11.5978 182.352 11.5131C182.139 11.4284 181.969 11.3013 181.799 11.1743C181.672 11.0472 181.544 10.8354 181.459 10.6237C181.374 10.4119 181.332 10.2001 181.332 9.94603V9.86132C181.332 9.64956 181.374 9.43779 181.459 9.22603C181.544 9.01426 181.629 8.84485 181.799 8.71779C181.927 8.59073 182.139 8.46367 182.352 8.37897C182.564 8.29426 182.819 8.25191 183.117 8.25191V7.91309H183.924V8.25191C184.179 8.25191 184.434 8.29426 184.646 8.37897C184.859 8.46367 185.029 8.54838 185.199 8.71779C185.369 8.84485 185.454 9.01426 185.539 9.22603C185.624 9.43779 185.666 9.64956 185.666 9.86132V9.94603C185.666 10.2001 185.624 10.4119 185.539 10.6237C185.454 10.8354 185.326 11.0048 185.199 11.1743C185.029 11.3013 184.859 11.4284 184.646 11.5131C184.434 11.5978 184.179 11.6401 183.924 11.6401V11.979H183.117V11.6401ZM182.224 9.94603C182.224 10.2849 182.309 10.539 182.437 10.7084C182.564 10.8778 182.819 10.9625 183.117 10.9625V8.92956C182.819 8.92956 182.564 9.01426 182.437 9.18367C182.267 9.35309 182.224 9.56485 182.224 9.86132V9.94603ZM184.859 9.81897C184.859 9.5225 184.774 9.31073 184.646 9.14132C184.476 9.01426 184.221 8.92956 183.924 8.92956V10.9625C184.561 10.9625 184.859 10.6237 184.859 9.94603V9.81897Z" fill="black"/>
<path d="M187.918 11.8519C187.706 11.8519 187.451 11.8096 187.238 11.7672C187.026 11.6825 186.856 11.5978 186.686 11.4284C186.516 11.259 186.389 11.0896 186.304 10.8355C186.219 10.5813 186.176 10.3272 186.176 9.9884V9.9037C186.176 9.56487 186.219 9.31075 186.304 9.05664C186.389 8.84487 186.516 8.63311 186.686 8.50605C186.856 8.37899 187.026 8.25193 187.238 8.16723C187.451 8.08252 187.663 8.08252 187.918 8.08252C188.131 8.08252 188.386 8.12487 188.598 8.16723C188.811 8.25193 188.981 8.33664 189.151 8.50605C189.321 8.63311 189.448 8.84487 189.533 9.05664C189.618 9.2684 189.661 9.56487 189.661 9.9037V9.9884C189.661 10.3272 189.618 10.6237 189.533 10.8355C189.448 11.0896 189.321 11.259 189.151 11.4284C188.981 11.5978 188.811 11.6825 188.598 11.7672C188.386 11.8096 188.173 11.8519 187.918 11.8519ZM187.918 11.1743C188.046 11.1743 188.173 11.1743 188.258 11.1319C188.386 11.0896 188.471 11.0049 188.556 10.9202C188.641 10.8355 188.726 10.7084 188.768 10.539C188.811 10.3696 188.853 10.2002 188.853 9.94605V9.86134C188.853 9.64958 188.811 9.48017 188.768 9.31075C188.726 9.1837 188.641 9.05664 188.556 8.97193C188.471 8.88723 188.386 8.80252 188.258 8.76017C188.131 8.71781 188.046 8.71781 187.918 8.71781C187.791 8.71781 187.663 8.71781 187.578 8.76017C187.451 8.80252 187.366 8.88723 187.281 8.97193C187.196 9.05664 187.111 9.1837 187.068 9.31075C187.026 9.43781 186.984 9.64958 186.984 9.86134V9.94605C186.984 10.1578 187.026 10.3696 187.068 10.539C187.111 10.7084 187.196 10.8355 187.281 10.9202C187.366 11.0049 187.451 11.0896 187.578 11.1319C187.706 11.1743 187.791 11.1743 187.918 11.1743Z" fill="black"/>
<path d="M190.383 8.08252H191.19V9.56487H192.762V8.08252H193.57V11.7672H192.762V10.2002H191.19V11.7672H190.383V8.08252Z" fill="black"/>
<path d="M194.08 11.1319H194.505C194.547 11.0049 194.59 10.8778 194.632 10.666C194.675 10.4966 194.675 10.3272 194.717 10.1155C194.717 9.9037 194.76 9.73428 194.76 9.52252C194.76 9.31075 194.76 9.09899 194.76 8.92958V8.08252H197.394V11.1319H197.777V12.4872H197.054V11.8096H194.76V12.4872H194.037V11.1319H194.08ZM196.587 11.1319V8.76017H195.525V9.05664C195.525 9.52252 195.482 9.94605 195.44 10.2849C195.397 10.6237 195.312 10.9202 195.227 11.1743H196.587V11.1319Z" fill="black"/>
<path d="M181.544 14.2661H184.689V17.9508H183.882V14.9014H182.352V17.9508H181.544V14.2661Z" fill="black"/>
<path d="M185.539 14.2661H186.984C187.493 14.2661 187.876 14.3932 188.088 14.6049C188.343 14.8167 188.471 15.1132 188.471 15.4943C188.471 15.8755 188.343 16.172 188.088 16.3838C187.833 16.5955 187.451 16.7226 186.984 16.7226H186.346V17.9932H185.539V14.2661ZM186.899 16.0449C187.196 16.0449 187.366 16.0026 187.493 15.9179C187.621 15.8332 187.663 15.6638 187.663 15.4943C187.663 15.3249 187.621 15.1555 187.493 15.0708C187.366 14.9861 187.196 14.9438 186.899 14.9438H186.346V16.0449H186.899Z" fill="black"/>
<path d="M190.638 18.0355C190.425 18.0355 190.17 17.9932 189.958 17.9508C189.746 17.8661 189.576 17.7814 189.406 17.612C189.236 17.4426 189.108 17.2732 189.023 17.0191C188.938 16.7649 188.896 16.5108 188.896 16.172V16.0873C188.896 15.7485 188.938 15.4943 189.023 15.2402C189.108 15.0285 189.236 14.8167 189.406 14.6896C189.576 14.5626 189.746 14.4355 189.958 14.3508C190.17 14.2661 190.383 14.2661 190.638 14.2661C190.85 14.2661 191.105 14.3085 191.318 14.3508C191.53 14.4355 191.7 14.5202 191.87 14.6896C192.04 14.8167 192.168 15.0285 192.253 15.2402C192.338 15.452 192.38 15.7485 192.38 16.0873V16.1296C192.38 16.4685 192.338 16.7649 192.253 16.9767C192.168 17.2308 192.04 17.4002 191.87 17.5696C191.7 17.7391 191.53 17.8238 191.318 17.9085C191.105 17.9932 190.893 18.0355 190.638 18.0355ZM190.638 17.3579C190.765 17.3579 190.893 17.3579 190.978 17.3155C191.105 17.2732 191.19 17.1885 191.275 17.1038C191.36 17.0191 191.445 16.892 191.488 16.7226C191.53 16.5532 191.573 16.3838 191.573 16.1296V16.0449C191.573 15.8332 191.53 15.6638 191.488 15.4943C191.445 15.3673 191.36 15.2402 191.275 15.1555C191.19 15.0708 191.105 14.9861 190.978 14.9438C190.893 14.8591 190.765 14.8591 190.638 14.8591C190.51 14.8591 190.383 14.8591 190.298 14.9014C190.17 14.9438 190.085 15.0285 190 15.1132C189.915 15.1979 189.83 15.3249 189.788 15.452C189.746 15.6214 189.746 15.7908 189.746 16.0449V16.1296C189.746 16.3414 189.788 16.5532 189.83 16.7226C189.873 16.892 189.958 17.0191 190.043 17.1038C190.128 17.1885 190.213 17.2732 190.34 17.3155C190.425 17.3155 190.553 17.3579 190.638 17.3579Z" fill="black"/>
<path d="M192.635 17.3155H193.06C193.102 17.1885 193.145 17.0614 193.187 16.8496C193.23 16.6802 193.272 16.5108 193.272 16.2991C193.315 16.0873 193.315 15.9179 193.315 15.7061C193.315 15.4943 193.315 15.2826 193.315 15.1132V14.2661H195.949V17.3155H196.332V18.6708H195.61V17.9932H193.315V18.6708H192.593V17.3155H192.635ZM195.142 17.3155V14.9438H194.08V15.2402C194.08 15.7061 194.037 16.1296 193.995 16.4685C193.952 16.8073 193.867 17.1038 193.782 17.3579H195.142V17.3155Z" fill="black"/>
<path d="M198.457 18.0355C198.244 18.0355 197.989 17.9932 197.777 17.9508C197.564 17.8661 197.394 17.7814 197.224 17.612C197.054 17.4426 196.927 17.2732 196.842 17.0191C196.757 16.7649 196.714 16.5108 196.714 16.172V16.0873C196.714 15.7485 196.757 15.4943 196.842 15.2402C196.927 15.0285 197.054 14.8167 197.224 14.6896C197.394 14.5626 197.564 14.4355 197.777 14.3508C197.989 14.2661 198.202 14.2661 198.457 14.2661C198.669 14.2661 198.924 14.3085 199.136 14.3508C199.349 14.4355 199.519 14.5202 199.689 14.6896C199.859 14.8167 199.986 15.0285 200.071 15.2402C200.156 15.452 200.199 15.7485 200.199 16.0873V16.1296C200.199 16.4685 200.156 16.7649 200.071 16.9767C199.986 17.2308 199.859 17.4002 199.689 17.5696C199.519 17.7391 199.349 17.8238 199.136 17.9085C198.924 17.9932 198.711 18.0355 198.457 18.0355ZM198.457 17.3579C198.584 17.3579 198.711 17.3579 198.796 17.3155C198.924 17.2732 199.009 17.1885 199.094 17.1038C199.179 17.0191 199.264 16.892 199.306 16.7226C199.349 16.5532 199.391 16.3838 199.391 16.1296V16.0449C199.391 15.8332 199.349 15.6638 199.306 15.4943C199.264 15.3673 199.179 15.2402 199.094 15.1555C199.009 15.0708 198.924 14.9861 198.796 14.9438C198.711 14.8591 198.584 14.8591 198.457 14.8591C198.329 14.8591 198.202 14.8591 198.117 14.9014C197.989 14.9438 197.904 15.0285 197.819 15.1132C197.734 15.1979 197.649 15.3249 197.607 15.452C197.564 15.5791 197.522 15.7908 197.522 16.0026V16.1296C197.522 16.3414 197.564 16.5532 197.607 16.7226C197.649 16.892 197.734 17.0191 197.819 17.1038C197.904 17.1885 197.989 17.2732 198.117 17.3155C198.244 17.3155 198.372 17.3579 198.457 17.3579Z" fill="black"/>
<path d="M200.921 14.2661H202.493C202.918 14.2661 203.216 14.3508 203.428 14.5202C203.641 14.6896 203.726 14.9438 203.726 15.2402C203.726 15.4096 203.683 15.5791 203.598 15.7485C203.513 15.8755 203.386 16.0026 203.216 16.0449C203.428 16.0873 203.598 16.2143 203.726 16.3414C203.853 16.5108 203.896 16.6802 203.896 16.9343C203.896 17.1038 203.853 17.2308 203.811 17.3579C203.768 17.4849 203.683 17.612 203.598 17.6967C203.513 17.7814 203.343 17.8661 203.173 17.9085C203.003 17.9508 202.791 17.9932 202.578 17.9932H200.921V14.2661ZM202.366 15.7908C202.578 15.7908 202.748 15.7485 202.833 15.6638C202.918 15.5791 202.961 15.452 202.961 15.3249C202.961 15.1979 202.918 15.0708 202.833 14.9861C202.748 14.9014 202.578 14.8591 202.366 14.8591H201.728V15.7908H202.366ZM202.451 17.3579C202.706 17.3579 202.876 17.3155 202.961 17.2308C203.046 17.1461 203.088 17.0191 203.088 16.8496C203.088 16.6802 203.046 16.5532 202.961 16.4685C202.876 16.3838 202.706 16.3414 202.451 16.3414H201.728V17.3579H202.451Z" fill="black"/>
<path d="M206.105 18.0355C205.893 18.0355 205.638 17.9932 205.425 17.9508C205.213 17.8661 205.043 17.7814 204.873 17.612C204.703 17.4426 204.575 17.2732 204.49 17.0191C204.405 16.7649 204.363 16.5108 204.363 16.172V16.0873C204.363 15.7485 204.405 15.4943 204.49 15.2402C204.575 15.0285 204.703 14.8167 204.873 14.6896C205.043 14.5626 205.213 14.4355 205.425 14.3508C205.638 14.2661 205.85 14.2661 206.105 14.2661C206.318 14.2661 206.573 14.3085 206.785 14.3508C206.998 14.4355 207.168 14.5202 207.337 14.6896C207.507 14.8167 207.635 15.0285 207.72 15.2402C207.805 15.452 207.847 15.7485 207.847 16.0873V16.1296C207.847 16.4685 207.805 16.7649 207.72 16.9767C207.635 17.2308 207.507 17.4002 207.337 17.5696C207.168 17.7391 206.998 17.8238 206.785 17.9085C206.53 17.9932 206.318 18.0355 206.105 18.0355ZM206.105 17.3579C206.233 17.3579 206.36 17.3579 206.445 17.3155C206.573 17.2732 206.658 17.1885 206.743 17.1038C206.828 17.0191 206.913 16.892 206.955 16.7226C206.998 16.5532 207.04 16.3838 207.04 16.1296V16.0449C207.04 15.8332 206.998 15.6638 206.955 15.4943C206.913 15.3673 206.828 15.2402 206.743 15.1555C206.658 15.0708 206.573 14.9861 206.445 14.9438C206.318 14.9014 206.233 14.9014 206.105 14.9014C205.978 14.9014 205.85 14.9014 205.765 14.9438C205.638 14.9861 205.553 15.0708 205.468 15.1555C205.383 15.2402 205.298 15.3673 205.255 15.4943C205.213 15.6214 205.17 15.8332 205.17 16.0449V16.1296C205.17 16.3414 205.213 16.5532 205.255 16.7226C205.298 16.892 205.383 17.0191 205.468 17.1038C205.553 17.1885 205.638 17.2732 205.765 17.3155C205.85 17.3155 205.978 17.3579 206.105 17.3579Z" fill="black"/>
<path d="M208.442 18.0357C208.4 18.0357 208.4 18.0357 208.357 18.0357C208.315 18.0357 208.272 18.0357 208.272 18.0357V17.3157C208.272 17.3157 208.315 17.3157 208.357 17.3157C208.442 17.3157 208.527 17.3157 208.57 17.2733C208.612 17.2309 208.697 17.1462 208.74 17.0192C208.782 16.8921 208.825 16.6804 208.825 16.4262C208.825 16.1721 208.867 15.7909 208.867 15.3674V14.3086H211.587V17.9933H210.779V14.9439H209.632V15.4521C209.632 16.0027 209.59 16.4686 209.547 16.8074C209.505 17.1462 209.42 17.4004 209.335 17.6121C209.25 17.7815 209.122 17.9086 208.995 17.9933C208.782 17.9933 208.612 18.0357 208.442 18.0357Z" fill="black"/>
<path d="M212.352 14.2661H213.159V15.5791H213.796C214.051 15.5791 214.264 15.6214 214.434 15.6638C214.604 15.7061 214.774 15.7908 214.901 15.9179C215.029 16.0026 215.114 16.1296 215.156 16.2991C215.199 16.4261 215.241 16.5955 215.241 16.8073C215.241 17.0191 215.199 17.1461 215.156 17.3155C215.114 17.4426 214.986 17.5696 214.901 17.6967C214.774 17.7814 214.604 17.8661 214.434 17.9508C214.264 17.9932 214.009 18.0355 213.796 18.0355H212.352V14.2661ZM213.711 17.3155C214.009 17.3155 214.179 17.2732 214.306 17.1885C214.434 17.1038 214.476 16.9767 214.476 16.8073C214.476 16.6379 214.434 16.5108 214.306 16.4261C214.179 16.3414 214.009 16.2991 213.711 16.2991H213.159V17.3579H213.711V17.3155Z" fill="black"/>
<path d="M217.366 18.0355C217.111 18.0355 216.898 17.9932 216.686 17.9508C216.473 17.8661 216.303 17.7814 216.176 17.612C216.048 17.4426 215.921 17.2732 215.836 17.0191C215.751 16.7649 215.709 16.5108 215.709 16.172V16.0873C215.709 15.7485 215.751 15.4943 215.836 15.2402C215.921 15.0285 216.048 14.8167 216.176 14.6896C216.346 14.5626 216.516 14.4355 216.686 14.3508C216.898 14.2661 217.111 14.2661 217.323 14.2661C217.536 14.2661 217.748 14.3085 217.918 14.3508C218.088 14.3932 218.258 14.4779 218.386 14.5626C218.513 14.6473 218.641 14.8167 218.726 14.9438C218.81 15.1132 218.853 15.2826 218.895 15.5367H218.088C218.046 15.3249 217.961 15.1555 217.833 15.0708C217.706 14.9861 217.536 14.9438 217.366 14.9438C217.238 14.9438 217.153 14.9438 217.068 14.9861C216.983 15.0285 216.898 15.0708 216.813 15.1979C216.728 15.2826 216.686 15.4096 216.643 15.5367C216.601 15.6638 216.558 15.8755 216.558 16.0873V16.1296C216.558 16.3414 216.601 16.5532 216.643 16.7226C216.686 16.892 216.771 17.0191 216.856 17.1038C216.941 17.1885 217.026 17.2732 217.111 17.3155C217.196 17.3579 217.323 17.3579 217.408 17.3579C217.621 17.3579 217.791 17.3155 217.918 17.1885C218.046 17.1038 218.131 16.9343 218.173 16.7226H218.98C218.98 16.9343 218.895 17.1461 218.81 17.3155C218.726 17.4849 218.598 17.612 218.471 17.6967C218.343 17.7814 218.173 17.8661 218.003 17.9085C217.791 17.9932 217.578 18.0355 217.366 18.0355Z" fill="black"/>
<path d="M220.383 14.9014H219.193V14.2661H222.38V14.9014H221.19V17.9508H220.383V14.9014Z" fill="black"/>
<path d="M222.89 14.2661H224.462C224.887 14.2661 225.184 14.3508 225.397 14.5202C225.609 14.6896 225.694 14.9438 225.694 15.2402C225.694 15.4096 225.652 15.5791 225.567 15.7485C225.482 15.8755 225.354 16.0026 225.184 16.0449C225.397 16.0873 225.567 16.2143 225.694 16.3414C225.822 16.5108 225.864 16.6802 225.864 16.9343C225.864 17.1038 225.822 17.2308 225.779 17.3579C225.737 17.4849 225.652 17.612 225.567 17.6967C225.482 17.7814 225.312 17.8661 225.142 17.9085C224.972 17.9508 224.759 17.9932 224.547 17.9932H222.89V14.2661ZM224.292 15.7908C224.505 15.7908 224.674 15.7485 224.759 15.6638C224.844 15.5791 224.887 15.452 224.887 15.3249C224.887 15.1979 224.844 15.0708 224.759 14.9861C224.674 14.9014 224.505 14.8591 224.292 14.8591H223.655V15.7908H224.292ZM224.377 17.3579C224.632 17.3579 224.802 17.3155 224.887 17.2308C224.972 17.1461 225.014 17.0191 225.014 16.8496C225.014 16.6802 224.972 16.5532 224.887 16.4685C224.802 16.3838 224.632 16.3414 224.377 16.3414H223.655V17.3579H224.377Z" fill="black"/>
<path d="M226.502 14.2661H227.309V16.7226L228.924 14.2661H229.689V17.9508H228.881V15.4943L227.267 17.9508H226.502V14.2661Z" fill="black"/>
<path d="M231.218 16.5106C230.963 16.4259 230.751 16.2988 230.623 16.087C230.496 15.9176 230.411 15.6635 230.411 15.4094C230.411 15.24 230.453 15.0706 230.496 14.9012C230.538 14.7741 230.623 14.647 230.751 14.52C230.878 14.4353 231.006 14.3506 231.176 14.2659C231.346 14.2235 231.558 14.1812 231.771 14.1812H233.3V17.8659H232.493V16.5106H231.898L231.091 17.8659H230.241L231.218 16.5106ZM231.218 15.4517C231.218 15.5364 231.218 15.6212 231.261 15.6635C231.303 15.7482 231.346 15.7906 231.388 15.8329C231.431 15.8753 231.516 15.9176 231.643 15.9176C231.728 15.96 231.856 15.96 232.026 15.96H232.578V14.9012H232.026C231.898 14.9012 231.771 14.9012 231.643 14.9435C231.558 14.9859 231.473 14.9859 231.388 15.0282C231.346 15.0706 231.303 15.1129 231.261 15.1976C231.261 15.2823 231.218 15.367 231.218 15.4517Z" fill="black"/>
<path d="M182.054 22.8633H188.216C191.105 22.8633 193.06 24.9809 193.06 27.9456C193.06 30.9103 191.105 33.0703 188.216 33.0703H185.666V37.6445H182.054V22.8633ZM187.451 29.9786C188.726 29.9786 189.321 29.1315 189.321 27.9456C189.321 26.7598 188.683 25.955 187.493 25.955H185.666V29.9786H187.451Z" fill="black"/>
<path d="M196.162 34.0445C196.544 34.3833 197.097 34.8068 197.819 34.8068C198.414 34.8068 198.796 34.5527 199.009 34.0445L193.23 22.8633H197.224L199.689 28.1574C200.199 29.2162 200.496 30.148 200.496 30.148H200.539C200.539 30.148 200.751 29.2162 201.134 28.1998L202.961 22.8633H206.785L202.408 33.9174C201.728 35.6539 200.581 37.8562 197.989 37.8562C196.672 37.8562 195.652 37.475 194.59 36.755L196.162 34.0445Z" fill="black"/>
<path d="M215.071 22.6094C217.068 22.6094 219.193 23.287 220.638 24.6847L218.938 27.4376C218.003 26.5906 216.558 25.9129 215.241 25.9129C212.267 25.9129 211.034 27.9882 211.034 30.1482C211.034 32.3506 212.352 34.5953 215.241 34.5953C216.728 34.5953 218.173 33.7906 219.193 32.7741L221.063 35.4C219.745 36.7553 217.791 37.8564 215.071 37.8564C210.312 37.8564 207.295 34.5953 207.295 30.1906C207.295 25.9129 210.482 22.6094 215.071 22.6094Z" fill="black"/>
<path d="M222.89 22.8633H226.502V27.4374H229.051C231.941 27.4374 233.895 29.5974 233.895 32.5621C233.895 35.5268 231.941 37.6445 229.051 37.6445H222.89V22.8633ZM228.371 34.5527C229.561 34.5527 230.199 33.748 230.199 32.5621C230.199 31.3762 229.561 30.5292 228.329 30.5292H226.544V34.5527H228.371Z" fill="black"/>
</g>
<defs>
<clipPath id="clip0_201_14">
<rect width="239" height="42" fill="white"/>
</clipPath>
<clipPath id="clip1_201_14">
<rect width="114.353" height="36" fill="white" transform="translate(5 3)"/>
</clipPath>
</defs>
</svg>
