<svg width="323" height="59" viewBox="0 0 323 59" fill="none" xmlns="http://www.w3.org/2000/svg">
<path d="M307.118 6.48915C286.446 5.52471 265.264 6.76587 244.384 8.17214C228.725 9.22682 213.066 10.2815 197.406 11.3362C184.478 12.2069 171.315 12.7305 158.454 14.1413C126.876 17.6052 95.5353 20.1223 64.4647 25.4553C53.8974 27.269 43.6578 29.544 33.2723 31.6318C25.3746 33.2195 16.8629 35.2825 10.2005 38.3106C5.62379 40.3908 1.88991 43.7585 2.1087 47.007C2.41144 51.5019 8.31 53.5504 15.3028 54.8549C37.1732 58.9349 62.8132 55.9757 85.9567 55.0799C99.7577 54.5457 113.67 53.2941 127.463 52.3651C141.166 51.4422 155.117 50.6019 168.695 48.8617C181.865 47.1738 195.276 46.0736 208.512 44.6465C221.888 43.2043 235.228 41.3619 248.535 39.6507C258.91 38.3166 268.726 35.8962 278.925 34.1739C285.955 32.9869 291.764 31.2611 298.006 29.0955C301.701 27.8135 304.853 26.2022 308.349 24.7671C311.227 23.5857 313.014 22.0676 315.542 20.8122C318.956 19.1174 319.34 16.7295 320.813 14.6463C322.223 12.6534 319.794 10.4169 318.071 9.0201C316.268 7.55834 310.784 6.50261 307.99 5.72426C299.69 3.41217 288.843 2.86021 279.576 2.17008" stroke="#FF5700" stroke-width="3" stroke-linecap="round"/>
</svg>
