<svg width="203" height="51" viewBox="0 0 203 51" fill="none" xmlns="http://www.w3.org/2000/svg">
<path d="M80.9708 7.65716C94.7736 3.698 108.868 5.39842 123 5.19625C142.621 4.91553 161.476 6.88501 181.073 9.29891C187.176 10.0507 199.913 8.82212 200.884 20.4681C201.487 27.6958 199.335 30.1848 195.003 33.705C176.299 48.906 150.117 46.169 128.747 47.9509C104.772 49.9501 81.4723 49.6601 57.3678 47.8649C42.2713 46.7406 27.3893 43.8271 12.3407 41.8545C1.47542 40.4302 -1.56187 32.6403 8.37754 23.7733C21.3554 12.1956 38.6685 9.54738 53.9235 6.55808C70.7185 3.26701 87.0301 0.993624 104.158 3.04023" stroke="black" stroke-width="3" stroke-linecap="round"/>
</svg>
