<svg width="265" height="67" viewBox="0 0 265 67" fill="none" xmlns="http://www.w3.org/2000/svg">
<path d="M252.152 13.5807C235.732 8.7133 218.596 7.54741 201.679 6.71171C188.992 6.08496 176.304 5.4582 163.617 4.83145C153.143 4.31399 142.529 3.16493 132.033 3.58369C106.262 4.61191 80.8134 4.05391 55.1891 8.36505C46.4741 9.83129 37.9574 12.1391 29.3499 14.1034C22.8043 15.5971 15.7007 17.8102 9.94397 21.9653C5.98935 24.8196 2.53056 30.0122 2.25378 35.6149C1.8708 43.3674 6.30953 47.7961 11.728 51.1196C28.6748 61.5142 49.6199 60.428 68.2786 62.4907C79.4052 63.7208 90.7211 63.7383 101.896 64.2904C112.998 64.8388 124.288 65.5675 135.403 64.6955C146.185 63.8496 157.078 64.0489 167.876 63.6605C178.789 63.2679 189.729 62.1837 200.623 61.3193C209.117 60.6454 217.315 58.0223 225.723 56.6557C231.517 55.7139 236.41 53.6588 241.71 50.9169C244.847 49.2937 247.596 47.0217 250.595 45.105C253.064 43.5274 254.706 41.2027 256.906 39.4438C259.875 37.0691 260.515 33.0355 261.985 29.6934C263.391 26.4963 261.757 22.2847 260.572 19.6223C259.331 16.8362 255.086 14.1737 252.957 12.405C246.632 7.15097 238.022 4.51825 230.697 1.89442" stroke="black" stroke-width="3" stroke-linecap="round"/>
</svg>
