<svg width="163" height="63" viewBox="0 0 163 63" fill="none" xmlns="http://www.w3.org/2000/svg">
<path d="M148.775 21.2091C137.413 13.5322 120.602 9.9949 107.18 9.11183C90.7207 8.029 73.37 7.32831 57.0506 10.0233C46.2521 11.8065 35.0744 14.1997 24.6531 17.4805C18.2613 19.4927 12.9259 22.7953 7.12856 26.0563C-2.63554 31.5486 4.7485 46.4321 10.8157 51.8252C16.9753 57.3003 26.0578 59.5638 34.016 60.3596C48.2145 61.7794 63.1645 61.0546 77.3508 59.821C96.2386 58.1786 115.922 52.4012 133.28 45.0723C138.032 43.0658 143.147 41.2289 147.449 38.3608C149.772 36.8121 155.142 33.6445 156.232 31.1935C157.779 27.7112 160.706 25.6773 160.706 21.582C160.706 18.3021 156.922 15.663 154.74 13.7933C146.38 6.62689 134.297 5.1975 124.166 1.82031" stroke="black" stroke-width="3" stroke-linecap="round"/>
</svg>
