<svg width="233" height="71" viewBox="0 0 233 71" fill="none" xmlns="http://www.w3.org/2000/svg">
<path d="M214.713 15.4289C201.121 7.6015 182.185 6.95699 166.624 4.68364C149.294 2.1518 132.331 0.842018 114.745 2.11327C88.2649 4.02757 58.7565 5.19972 34.2551 15.8329C26.6533 19.132 18.5577 21.872 11.3186 25.787C7.56111 27.8191 3.7516 29.8038 2.4519 33.7583C-2.797 49.7287 26.8483 58.8822 38.5791 62.1796C70.2488 71.0817 102.433 70.1611 135.264 67.7878C161.559 65.8869 190.288 65.3902 212.969 51.8992C221.814 46.6377 233.281 37.0128 230.359 26.5003C228.962 21.4733 218.026 16.8817 213.349 14.7374C200.512 8.85272 186.973 6.38961 172.725 4.24258" stroke="black" stroke-width="3" stroke-linecap="round"/>
</svg>
