<svg width="281" height="64" viewBox="0 0 281 64" fill="none" xmlns="http://www.w3.org/2000/svg">
<path d="M7.79133 19.3169C16.8006 14.0271 29.3185 11.5431 39.6733 9.68541C65.9243 4.97584 92.8925 3.1484 119.538 2.22097C163.16 0.702664 206.905 3.75646 250.06 8.66718C257.285 9.48926 264.37 11.0501 270.85 14.0212C273.697 15.3268 276.811 16.4106 277.806 19.3455C279.067 23.0637 278.774 27.0433 277.765 30.7983C275.51 39.1862 264.897 42.9145 257.061 46.1045C241.586 52.4043 224.782 55.6656 208.097 57.8366C185.487 60.7784 163.133 62.1663 140.325 62.0404C101.723 61.8274 62.5259 61.2623 25.9835 49.4165C17.588 46.6949 5.35683 43.2649 2.13696 34.9755C1.0389 32.1486 3.43819 28.9309 5.47069 27.0536C14.8014 18.4352 26.5188 12.8088 37.7301 6.43822" stroke="black" stroke-width="3" stroke-linecap="round"/>
</svg>
