<svg width="390" height="390" viewBox="0 0 390 390" fill="none" xmlns="http://www.w3.org/2000/svg">
<circle cx="194.848" cy="194.848" r="124.652" transform="rotate(37.1062 194.848 194.848)" fill="black"/>
<path d="M186.959 135.905C202.298 146.043 217.636 156.181 232.974 166.319C239.586 170.689 246.599 174.809 252.086 180.624C254.033 182.687 255.671 186.207 255.546 189.076C255.35 193.556 254.665 196.819 252.962 201.001C250.668 206.636 246.809 211.577 243.468 216.63C237.606 225.5 229.659 232.362 223.133 240.648C220.319 244.221 217.183 247.483 214.493 251.141C212.3 254.125 209.718 257.351 206.72 259.574C205.705 260.326 203.529 259.36 202.631 258.916C198.914 257.076 195.571 255.365 192.07 253.051C182.346 246.624 171.728 240.727 162.714 233.339C153.771 226.009 145.764 218.346 138.618 209.233C134.759 204.312 131.624 200.591 132.091 194.075C132.718 185.342 137.315 178.953 141.982 171.892C147.251 163.921 152.519 155.95 157.788 147.979C160.692 143.585 163.99 140.89 167.998 137.594C169.772 136.134 171.691 134.925 173.834 134.201C175.968 133.481 177.479 133.542 179.694 133.21C180.869 133.034 183.057 134.305 184.187 134.662C185.686 135.135 187.814 135.913 189.157 136.8" stroke="white" stroke-width="6" stroke-linecap="round"/>
<path d="M211.306 156.659C214.008 150.222 214.777 142.767 213.539 135.914C213.083 133.386 213.375 128.475 209.973 128.471C200.616 128.459 191.726 140.289 190.84 148.735C190.707 150.007 190.857 153.767 192.217 154.595C193.494 155.373 195.998 154.87 197.365 154.789C200.715 154.589 204.008 154.089 207.342 153.767C213.665 153.157 219.923 151.847 226.297 152.125C232.58 152.399 239.203 152.929 245.324 154.447C247.495 154.986 249.678 155.481 250.165 157.864C250.821 161.082 249.27 164.121 247.866 166.898C243.144 176.232 230.334 179.941 220.635 179.58C215.23 179.378 209.117 176.945 207.556 171.262C206.05 165.775 211.263 158.927 213.564 154.724" stroke="white" stroke-width="6" stroke-linecap="round"/>
<path d="M210.965 156.434C205.015 165.436 198.736 174.195 192.783 183.202C186.694 192.415 179.95 201.812 175.15 211.774C172.222 217.85 169.617 224.095 166.652 230.146C165.157 233.196 163.449 237.436 163.044 240.789" stroke="white" stroke-width="6" stroke-linecap="round"/>
<path d="M143.255 164.066C174.943 185.01 206.426 206.308 238.093 227.238" stroke="white" stroke-width="6" stroke-linecap="round"/>
<path d="M278.756 258C243.457 304.663 177.013 313.876 130.349 278.576C83.6853 243.277 74.4727 176.833 109.772 130.169" stroke="white" stroke-width="3"/>
<path d="M127.463 120.739C125.817 122.631 124.295 124.225 122.897 125.522C122.232 126.139 121.514 126.432 120.741 126.404C119.969 126.375 119.274 126.028 118.657 125.363L115.528 121.992C114.848 121.259 114.523 120.497 114.552 119.705C114.583 118.895 114.964 118.15 115.697 117.469L120.388 113.116L122.225 115.095L118.34 118.7C117.949 119.063 117.935 119.44 118.298 119.831L120.951 122.689C121.087 122.836 121.249 122.913 121.437 122.92C121.626 122.927 121.793 122.862 121.94 122.726C122.82 121.91 124.071 120.612 125.694 118.833L127.463 120.739Z" fill="white"/>
<path d="M134.537 113.429L132.405 114.918L128.704 113.112L131.797 117.539L128.928 119.543L122.857 110.854L125.89 108.735L131.638 111.55L130.973 105.184L134.006 103.065L140.076 111.754L137.207 113.759L134.115 109.332L134.537 113.429Z" fill="white"/>
<path d="M150.504 102.987C150.953 103.88 151.05 104.712 150.795 105.482C150.546 106.234 149.975 106.834 149.082 107.283L144.972 109.349C144.078 109.798 143.249 109.901 142.486 109.658C141.728 109.397 141.124 108.82 140.675 107.926L138.61 103.816C138.161 102.923 138.061 102.1 138.31 101.348C138.564 100.578 139.139 99.9689 140.032 99.5199L144.142 97.4544C145.036 97.0053 145.862 96.9112 146.619 97.1721C147.383 97.415 147.989 97.9832 148.439 98.8767L150.504 102.987ZM145.446 100.716C145.206 100.24 144.848 100.121 144.372 100.361L142.227 101.438C141.751 101.678 141.632 102.036 141.872 102.513L143.668 106.087C143.907 106.563 144.265 106.682 144.742 106.442L146.886 105.364C147.363 105.125 147.482 104.767 147.242 104.29L145.446 100.716Z" fill="white"/>
<path d="M157.154 95.2512L159.806 102.693L156.509 103.868L153.857 96.4263L150.748 97.5343L149.842 94.9911L159.356 91.5999L160.262 94.1432L157.154 95.2512Z" fill="white"/>
<path d="M168.894 91.9626C168.204 92.1148 167.451 92.4173 166.636 92.8702L167.67 97.5575L170.6 96.9113C171.12 96.7964 171.323 96.4786 171.209 95.9577L170.412 92.3446C170.368 92.1493 170.267 92.0009 170.109 91.8994C169.95 91.7979 169.773 91.7687 169.577 91.8118L168.894 91.9626ZM168.252 100.194L168.984 103.514L165.566 104.268L162.551 90.5969L165.578 89.9291L165.988 90.8626C166.511 90.3239 167.072 89.8931 167.67 89.5701C168.277 89.2312 168.803 89.0129 169.245 88.9153L170.124 88.7214C171.01 88.5261 171.778 88.6365 172.43 89.0526C173.081 89.4686 173.505 90.1194 173.7 91.0048L174.691 95.4968C174.906 96.4733 174.796 97.3032 174.36 97.9866C173.933 98.6541 173.232 99.0955 172.255 99.311L168.252 100.194Z" fill="white"/>
<path d="M181.147 89.5774C180.616 89.625 180.374 89.9144 180.422 90.4456L180.52 91.5412L183.906 91.2377L183.808 90.1421C183.76 89.6109 183.471 89.3691 182.94 89.4167L181.147 89.5774ZM187.547 97.1362C185.008 97.6315 182.696 97.9726 180.611 98.1595C179.708 98.2405 178.96 98.0331 178.366 97.5374C177.773 97.0417 177.436 96.3424 177.355 95.4393L176.927 90.6585C176.837 89.6625 177.047 88.8606 177.554 88.2528C178.074 87.6306 178.832 87.2749 179.828 87.1856L183.812 86.8285C184.808 86.7392 185.611 86.9551 186.22 87.4761C186.841 87.9827 187.196 88.734 187.285 89.73L187.615 93.4152L180.743 94.0312L180.814 94.8281C180.832 95.0273 180.914 95.1873 181.058 95.3082C181.203 95.4291 181.375 95.4806 181.574 95.4628C182.889 95.3449 184.805 95.0727 187.324 94.6461L187.547 97.1362Z" fill="white"/>
<path d="M196.282 89.4896L196.069 97.3867L192.57 97.2926L192.783 89.3954L189.484 89.3067L189.557 86.6077L199.653 86.8793L199.58 89.5783L196.282 89.4896Z" fill="white"/>
<path d="M201.378 97.5972L202.893 87.106L206.357 87.6064L205.885 90.8725L209.943 91.4587C210.84 91.5883 211.521 91.9627 211.983 92.5819C212.446 93.2011 212.613 93.9594 212.483 94.8567L212.298 96.1434C212.168 97.0407 211.794 97.7208 211.174 98.1837C210.555 98.6466 209.797 98.8133 208.899 98.6837L201.378 97.5972ZM208.069 96.0378C208.267 96.0664 208.442 96.0242 208.593 95.9113C208.744 95.7984 208.833 95.643 208.862 95.4451L208.991 94.5543C209.019 94.3564 208.977 94.1819 208.864 94.0308C208.751 93.8798 208.596 93.79 208.398 93.7614L205.528 93.3468L205.199 95.6232L208.069 96.0378Z" fill="white"/>
<path d="M228.011 103.598C225.56 103.066 223.43 102.501 221.62 101.901C220.759 101.615 220.156 101.127 219.809 100.436C219.462 99.7453 219.431 98.9696 219.717 98.109L221.164 93.7427C221.479 92.7935 221.99 92.1412 222.698 91.7859C223.423 91.4221 224.259 91.3976 225.209 91.7123L231.283 93.7263L230.434 96.2892L225.403 94.6213C224.897 94.4534 224.56 94.6226 224.392 95.1289L223.165 98.8307C223.102 99.0206 223.113 99.1997 223.197 99.3683C223.282 99.5368 223.419 99.6525 223.609 99.7154C224.748 100.093 226.488 100.565 228.829 101.13L228.011 103.598Z" fill="white"/>
<path d="M243.844 99.3705L239.295 108.945L236.133 107.443L239.524 100.307L236.272 98.7622L232.882 105.898L229.721 104.396L234.27 94.8214L243.844 99.3705Z" fill="white"/>
<path d="M253.182 105.018L256.284 107.034L250.507 115.922L247.573 114.014L250.734 109.151L244.722 112.161L241.62 110.145L247.397 101.257L250.331 103.165L247.17 108.028L253.182 105.018Z" fill="white"/>
<path d="M259.989 123.396C257.909 121.996 256.139 120.682 254.68 119.454C253.986 118.871 253.606 118.194 253.539 117.424C253.473 116.653 253.731 115.921 254.315 115.227L257.276 111.707C257.919 110.942 258.636 110.525 259.425 110.457C260.233 110.387 261.019 110.674 261.784 111.318L266.683 115.437L264.945 117.503L260.888 114.092C260.48 113.749 260.105 113.781 259.761 114.189L257.251 117.174C257.122 117.327 257.066 117.498 257.082 117.685C257.099 117.873 257.183 118.032 257.336 118.16C258.255 118.933 259.697 120.015 261.662 121.406L259.989 123.396Z" fill="white"/>
<path d="M271.109 130.926C270.376 131.606 269.605 131.931 268.794 131.901C268.003 131.871 267.267 131.49 266.587 130.757L263.458 127.385C262.778 126.652 262.448 125.885 262.468 125.084C262.508 124.284 262.894 123.543 263.627 122.863L266.998 119.734C267.731 119.054 268.494 118.728 269.285 118.758C270.095 118.788 270.841 119.17 271.521 119.903L274.65 123.275C275.33 124.008 275.651 124.774 275.611 125.575C275.591 126.376 275.214 127.117 274.481 127.797L271.109 130.926ZM271.88 125.435C272.271 125.073 272.285 124.696 271.923 124.305L270.29 122.546C269.927 122.155 269.55 122.141 269.159 122.503L266.227 125.224C265.836 125.587 265.822 125.964 266.185 126.355L267.818 128.114C268.181 128.505 268.557 128.519 268.948 128.156L271.88 125.435Z" fill="white"/>
<path d="M276.633 136.571L275.76 135.352L272.507 137.68L270.47 134.834L279.089 128.664L281.127 131.51L277.955 133.78L278.887 135.081L281.316 134.695C282.242 134.523 283.079 134.695 283.825 135.211C284.09 135.398 284.304 135.605 284.467 135.833C284.731 136.202 284.945 136.557 285.108 136.9L285.317 137.364L283.122 138.936L282.715 138.367C282.451 137.998 282.094 137.844 281.645 137.903L279.436 138.254L276.873 143.778L274.661 140.688L276.633 136.571Z" fill="white"/>
<path d="M294.451 154.858L284.841 159.331L283.364 156.158L290.526 152.824L289.007 149.56L281.845 152.894L280.368 149.721L289.978 145.248L294.451 154.858Z" fill="white"/>
<path d="M291.945 171.188C290.99 171.485 290.154 171.445 289.436 171.068C288.735 170.7 288.236 170.039 287.939 169.084L286.572 164.691C286.275 163.737 286.308 162.902 286.673 162.188C287.054 161.483 287.722 160.982 288.676 160.685L293.069 159.318C294.024 159.021 294.851 159.057 295.553 159.425C296.27 159.802 296.778 160.468 297.075 161.423L298.442 165.815C298.739 166.77 298.697 167.6 298.316 168.305C297.952 169.019 297.292 169.524 296.337 169.821L291.945 171.188ZM295.011 166.569C295.52 166.41 295.695 166.076 295.537 165.567L294.824 163.276C294.665 162.766 294.331 162.591 293.822 162.749L290.003 163.938C289.494 164.096 289.318 164.43 289.477 164.94L290.19 167.231C290.348 167.74 290.682 167.916 291.191 167.757L295.011 166.569Z" fill="white"/>
<path d="M295.435 178.14C294.504 178.229 293.703 178.092 293.035 177.731L293.613 181.183L298.741 180.324L298.328 177.859L295.435 178.14ZM301.982 183.33L294.191 184.635L294.438 186.114L289.408 186.957L288.86 183.682L291.194 183.089L290.177 177.013L287.777 177.212L287.228 173.938L292.258 173.096L292.473 174.378C293.179 174.8 293.919 174.981 294.693 174.919L300.479 174.355L301.982 183.33Z" fill="white"/>
<path d="M294.664 192.442C294.689 193.149 294.85 193.944 295.147 194.827L296.347 194.785L296.246 191.887C296.239 191.687 296.166 191.523 296.028 191.394C295.89 191.266 295.721 191.205 295.522 191.212L295.322 191.219C295.122 191.226 294.958 191.298 294.829 191.436C294.7 191.574 294.64 191.743 294.646 191.943L294.664 192.442ZM302.33 188.473C302.682 190.902 302.892 193.096 302.96 195.055C302.992 195.961 302.744 196.697 302.217 197.262C301.689 197.827 300.973 198.126 300.066 198.158L292.271 198.429L292.163 195.331L293.156 195.097C292.721 194.485 292.392 193.849 292.168 193.19C291.959 192.543 291.847 191.994 291.831 191.541L291.806 190.841C291.775 189.935 292.023 189.199 292.55 188.634C293.077 188.068 293.794 187.77 294.7 187.738L295.599 187.707C296.505 187.675 297.241 187.923 297.807 188.45C298.372 188.978 298.671 189.694 298.702 190.601L298.845 194.698L299.645 194.67C299.844 194.663 300.009 194.591 300.137 194.453C300.266 194.315 300.327 194.146 300.32 193.946C300.29 193.08 300.216 192.122 300.099 191.072C299.983 190.036 299.894 189.198 299.832 188.56L302.33 188.473Z" fill="white"/>
<path d="M299.613 207.208C299.679 206.504 299.62 205.695 299.437 204.781L294.657 204.338L294.38 207.326C294.331 207.857 294.572 208.147 295.103 208.196L298.787 208.537C298.986 208.556 299.159 208.505 299.304 208.384C299.449 208.264 299.53 208.104 299.549 207.905L299.613 207.208ZM291.969 204.089L288.583 203.776L288.906 200.291L302.846 201.582L302.56 204.669L301.546 204.776C301.9 205.438 302.139 206.103 302.265 206.771C302.403 207.453 302.451 208.02 302.409 208.471L302.326 209.367C302.242 210.27 301.903 210.969 301.308 211.462C300.713 211.956 299.965 212.161 299.062 212.078L294.481 211.653C293.486 211.561 292.729 211.203 292.211 210.579C291.705 209.97 291.498 209.168 291.59 208.172L291.969 204.089Z" fill="white"/>
<path d="M293.756 219.604L294.084 218.141L290.181 217.266L290.946 213.851L301.29 216.168L300.525 219.583L296.719 218.731L296.369 220.292L298.275 221.846C299.021 222.423 299.45 223.162 299.562 224.061C299.599 224.384 299.587 224.682 299.526 224.955C299.427 225.397 299.304 225.794 299.158 226.143L298.951 226.609L296.316 226.019L296.469 225.336C296.568 224.894 296.446 224.525 296.102 224.229L294.369 222.816L288.541 224.585L289.372 220.877L293.756 219.604Z" fill="white"/>
<path d="M287.441 236.764C286.501 236.424 285.858 235.888 285.513 235.154C285.176 234.437 285.178 233.609 285.517 232.668L287.078 228.341C287.417 227.4 287.947 226.755 288.669 226.406C289.398 226.073 290.233 226.077 291.174 226.416L295.501 227.977C296.442 228.316 297.08 228.844 297.417 229.561C297.762 230.295 297.765 231.132 297.425 232.073L295.864 236.4C295.525 237.341 294.991 237.977 294.262 238.31C293.54 238.659 292.709 238.664 291.769 238.325L287.441 236.764ZM292.674 234.93C293.176 235.111 293.517 234.951 293.698 234.449L294.512 232.192C294.693 231.69 294.533 231.349 294.031 231.168L290.268 229.81C289.767 229.63 289.425 229.79 289.244 230.292L288.43 232.549C288.249 233.051 288.409 233.392 288.911 233.573L292.674 234.93Z" fill="white"/>
<path d="M280.272 244.66L283.739 237.897L293.172 242.733L289.978 248.962C289.571 249.757 289.005 250.276 288.281 250.519C287.563 250.78 286.913 250.762 286.331 250.464C285.75 250.165 285.339 249.798 285.099 249.36C284.859 248.922 284.789 248.444 284.89 247.927C284.521 248.412 284.026 248.735 283.404 248.895C282.777 249.068 282.107 248.972 281.395 248.607C280.683 248.242 280.217 247.688 279.998 246.947C279.773 246.217 279.864 245.455 280.272 244.66ZM283.525 245.766C283.703 245.857 283.882 245.874 284.062 245.816C284.241 245.758 284.377 245.64 284.468 245.462L285.791 242.882L284.278 242.106L282.955 244.687C282.864 244.865 282.847 245.044 282.905 245.223C282.963 245.403 283.081 245.538 283.259 245.629L283.525 245.766ZM287.448 247.103C287.626 247.194 287.804 247.211 287.984 247.153C288.163 247.095 288.299 246.977 288.39 246.799L289.439 244.752L287.838 243.931L286.788 245.978C286.697 246.156 286.68 246.335 286.738 246.514C286.796 246.694 286.914 246.829 287.092 246.92L287.448 247.103Z" fill="white"/>
</svg>
