<svg width="933" height="879" viewBox="0 0 933 879" fill="none" xmlns="http://www.w3.org/2000/svg">
<g clip-path="url(#clip0_218_4)">
<g filter="url(#filter0_f_218_4)">
<path d="M391.714 36.2339L491.432 314.786L631.221 39.1598L559.627 332.358L830.854 149.387L607.13 378.669L937.12 337.381L621.214 441.311L921.546 552.768L598.105 503.498L788.305 737.836L543.994 548.568L573.099 842.996L473.381 564.444L333.592 840.07L405.186 546.872L133.959 729.843L357.682 500.561L27.6927 541.849L343.599 437.919L43.2664 326.462L366.708 375.732L176.507 141.394L420.819 330.662L391.714 36.2339Z" fill="#FDFFA4"/>
</g>
<path d="M585.698 409.648C577.009 390.407 562.74 370.746 549.16 354.634C531.04 333.137 513.645 310.65 490.765 293.93C479.84 285.946 468.203 277.233 454.227 276.115C443.687 275.271 438.419 279.106 431.298 286.672C420.106 298.563 417.373 316.804 416.122 332.448C414.261 355.702 414.308 378.536 419.421 401.4C434.238 467.664 467.922 532.984 494.5 595" stroke="black" stroke-width="6" stroke-linecap="round"/>
<path d="M463.355 561.111C466.008 564.789 469.248 567.846 472.244 571.239C476.771 576.365 481.374 581.422 485.932 586.519C490.849 592.019 495.031 597.991 499.658 603.707C500.567 604.829 498.871 601.194 498.714 600.816C495.948 594.151 493.21 587.707 491.477 580.659C488.642 569.127 486.908 557.405 486.207 545.556C485.631 535.813 486.243 526.527 487.426 516.864" stroke="black" stroke-width="6" stroke-linecap="round"/>
</g>
<defs>
<filter id="filter0_f_218_4" x="-22.3073" y="-13.7661" width="1009.43" height="906.762" filterUnits="userSpaceOnUse" color-interpolation-filters="sRGB">
<feFlood flood-opacity="0" result="BackgroundImageFix"/>
<feBlend mode="normal" in="SourceGraphic" in2="BackgroundImageFix" result="shape"/>
<feGaussianBlur stdDeviation="25" result="effect1_foregroundBlur_218_4"/>
</filter>
<clipPath id="clip0_218_4">
<rect width="933" height="879" fill="white"/>
</clipPath>
</defs>
</svg>
